<?xml version="1.0" encoding="UTF-8" standalone="no"?>
<!DOCTYPE svg PUBLIC "-//W3C//DTD SVG 1.1//EN" "http://www.w3.org/Graphics/SVG/1.1/DTD/svg11.dtd">
<svg width="100%" height="100%" viewBox="0 0 512 512" version="1.1" xmlns="http://www.w3.org/2000/svg" xmlns:xlink="http://www.w3.org/1999/xlink" xml:space="preserve" xmlns:serif="http://www.serif.com/" style="fill-rule:evenodd;clip-rule:evenodd;stroke-linejoin:round;stroke-miterlimit:2;">
    <g transform="matrix(1.11725,0,0,1.12877,-74.5995,-35.8696)">
        <path d="M213.679,94.719C223.422,71.563 246.332,55.288 273.013,55.288C299.695,55.288 322.605,71.563 332.347,94.719L433.973,94.719C446.452,94.719 456.583,104.747 456.583,117.099L456.583,209.434C483.058,217.396 502.364,241.983 502.364,271.044C502.364,300.105 483.058,324.692 456.583,332.655L456.583,439.48C456.583,451.831 446.452,461.859 433.973,461.859L332.49,461.859C322.842,438.51 299.833,422.066 273.013,422.066C246.193,422.066 223.184,438.51 213.537,461.859L112.053,461.859C99.574,461.859 89.443,451.831 89.443,439.48L89.443,333.094C116.71,325.64 136.769,300.666 136.769,271.044C136.769,241.422 116.71,216.449 89.443,208.995L89.443,117.099C89.443,104.747 99.574,94.719 112.053,94.719L213.679,94.719Z" style="fill:rgb(0,118,198);"/>
        <path d="M200.762,73.457C216.03,49.72 242.713,34.026 273.013,34.026C303.313,34.026 329.996,49.72 345.265,73.457L433.973,73.457C458.308,73.457 478.064,93.012 478.064,117.099L478.064,195.337C505.257,209.68 523.846,238.195 523.846,271.044C523.846,303.894 505.257,332.408 478.064,346.751L478.064,439.48C478.064,463.566 458.308,483.121 433.973,483.121L332.49,483.121C323.766,483.121 315.909,477.9 312.607,469.908C306.178,454.348 290.886,443.328 273.013,443.328C255.14,443.328 239.848,454.348 233.419,469.908C230.117,477.9 222.26,483.121 213.537,483.121C213.537,483.121 112.053,483.121 112.053,483.121C87.719,483.121 67.962,463.566 67.962,439.48L67.962,333.094C67.962,323.531 74.412,315.145 83.724,312.599C101.958,307.614 115.288,290.852 115.288,271.044C115.288,251.236 101.958,234.474 83.724,229.489C74.412,226.943 67.962,218.557 67.962,208.995C67.962,208.995 67.962,117.099 67.962,117.099C67.962,93.012 87.719,73.457 112.053,73.457L200.762,73.457ZM213.679,94.719C223.422,71.563 246.332,55.288 273.013,55.288C299.695,55.288 322.605,71.563 332.347,94.719L433.973,94.719C446.452,94.719 456.583,104.747 456.583,117.099L456.583,209.434C483.058,217.396 502.364,241.983 502.364,271.044C502.364,300.105 483.058,324.692 456.583,332.655L456.583,439.48C456.583,451.831 446.452,461.859 433.973,461.859L332.49,461.859C322.842,438.51 299.833,422.066 273.013,422.066C246.193,422.066 223.184,438.51 213.537,461.859L112.053,461.859C99.574,461.859 89.443,451.831 89.443,439.48L89.443,333.094C116.71,325.64 136.769,300.666 136.769,271.044C136.769,241.422 116.71,216.449 89.443,208.995L89.443,117.099C89.443,104.747 99.574,94.719 112.053,94.719L213.679,94.719Z" style="fill:white;"/>
    </g>
    <g transform="matrix(0.914276,0,0,0.923698,-120.7,152.434)">
        <g transform="matrix(288,0,0,288,215.928,218.79)">
            <path d="M0.259,-0L0.259,-0.631L0.023,-0.631L0.023,-0.716L0.591,-0.716L0.591,-0.631L0.354,-0.631L0.354,-0L0.259,-0Z" style="fill:white;fill-rule:nonzero;"/>
        </g>
        <g transform="matrix(288,0,0,288,391.85,218.79)">
            <path d="M0.045,-0.23L0.134,-0.238C0.139,-0.202 0.148,-0.173 0.164,-0.15C0.179,-0.127 0.203,-0.108 0.236,-0.094C0.268,-0.08 0.305,-0.073 0.346,-0.073C0.382,-0.073 0.414,-0.078 0.441,-0.089C0.469,-0.1 0.49,-0.114 0.503,-0.133C0.517,-0.152 0.523,-0.172 0.523,-0.194C0.523,-0.217 0.517,-0.236 0.504,-0.253C0.491,-0.27 0.469,-0.284 0.439,-0.295C0.42,-0.303 0.378,-0.315 0.312,-0.33C0.246,-0.346 0.2,-0.361 0.174,-0.375C0.14,-0.393 0.114,-0.415 0.097,-0.442C0.081,-0.468 0.072,-0.498 0.072,-0.531C0.072,-0.567 0.083,-0.601 0.103,-0.632C0.124,-0.663 0.153,-0.687 0.193,-0.704C0.232,-0.72 0.276,-0.728 0.324,-0.728C0.377,-0.728 0.424,-0.719 0.465,-0.702C0.505,-0.685 0.536,-0.66 0.558,-0.627C0.58,-0.594 0.592,-0.556 0.593,-0.514L0.502,-0.507C0.498,-0.553 0.481,-0.587 0.453,-0.61C0.425,-0.633 0.383,-0.645 0.328,-0.645C0.271,-0.645 0.229,-0.634 0.203,-0.613C0.177,-0.592 0.164,-0.567 0.164,-0.537C0.164,-0.511 0.173,-0.49 0.191,-0.474C0.21,-0.457 0.257,-0.44 0.334,-0.423C0.411,-0.405 0.464,-0.39 0.493,-0.377C0.534,-0.358 0.565,-0.333 0.585,-0.304C0.605,-0.274 0.615,-0.241 0.615,-0.202C0.615,-0.164 0.604,-0.128 0.582,-0.094C0.56,-0.061 0.529,-0.035 0.488,-0.016C0.447,0.003 0.401,0.012 0.35,0.012C0.285,0.012 0.231,0.003 0.187,-0.016C0.143,-0.035 0.109,-0.063 0.084,-0.101C0.059,-0.139 0.046,-0.182 0.045,-0.23Z" style="fill:white;fill-rule:nonzero;"/>
        </g>
    </g>
</svg>
